<?xml version="1.0" standalone="no"?>
<!DOCTYPE svg PUBLIC "-//W3C//DTD SVG 20010904//EN"
 "http://www.w3.org/TR/2001/REC-SVG-20010904/DTD/svg10.dtd">
<svg version="1.0" xmlns="http://www.w3.org/2000/svg"
 width="292.000000pt" height="292.000000pt" viewBox="0 0 292.000000 292.000000"
 preserveAspectRatio="xMidYMid meet">
<metadata>
Created by potrace 1.14, written by Peter Selinger 2001-2017
</metadata>
<g transform="translate(0.000000,292.000000) scale(0.100000,-0.100000)"
fill="#000000" stroke="none">
<path d="M1765 2487 c-99 -33 -175 -99 -221 -192 -26 -53 -29 -71 -29 -150 0
-49 3 -102 7 -116 7 -24 -2 -31 -228 -167 l-235 -142 -42 34 c-90 73 -190 103
-291 86 -203 -33 -341 -225 -306 -422 15 -78 40 -128 97 -189 65 -70 137 -102
243 -107 102 -5 170 17 247 77 l48 38 190 -118 c306 -190 286 -175 278 -207
-5 -15 -8 -67 -8 -117 0 -76 4 -99 27 -147 34 -73 103 -142 176 -176 49 -23
70 -27 152 -27 82 0 103 4 152 27 69 32 137 98 175 170 26 48 28 62 28 158 0
126 -19 175 -100 255 -80 81 -129 100 -255 100 -116 0 -152 -12 -235 -80 l-40
-32 -230 143 c-126 79 -234 145 -239 147 -5 2 -3 26 4 56 12 51 9 160 -5 206
-5 18 25 39 231 162 l237 142 40 -34 c180 -154 447 -104 561 105 48 88 50 232
5 327 -33 68 -94 129 -165 164 -55 27 -80 33 -147 36 -50 2 -98 -2 -122 -10z"/>
</g>
</svg>
