<svg fill="none" height="600" viewBox="0 0 1600 600" width="1600" xmlns="http://www.w3.org/2000/svg" xmlns:xlink="http://www.w3.org/1999/xlink"><linearGradient id="a"><stop offset="0" stop-color="#a9d9a4"/><stop offset="1" stop-color="#65bb5c"/></linearGradient><linearGradient id="b" gradientUnits="userSpaceOnUse" x1="693.045" x2="1115.29" xlink:href="#a" y1="418.52" y2="418.52"/><linearGradient id="c" gradientUnits="userSpaceOnUse" x1="1239.24" x2="1530.98" xlink:href="#a" y1="404.874" y2="404.874"/><linearGradient id="d" gradientUnits="userSpaceOnUse" x1="1060.62" x2="1222.34" xlink:href="#a" y1="271.075" y2="271.075"/><linearGradient id="e"><stop offset="0" stop-color="#f56344"/><stop offset=".9944" stop-color="#f23b14"/></linearGradient><linearGradient id="f" gradientUnits="userSpaceOnUse" x1="691.743" x2="734.133" xlink:href="#e" y1="208.782" y2="208.782"/><linearGradient id="g"><stop offset="0" stop-color="#99d4ff"/><stop offset="1" stop-color="#3af"/></linearGradient><linearGradient id="h" gradientUnits="userSpaceOnUse" x1="676.71" x2="700.162" xlink:href="#g" y1="193.648" y2="193.648"/><linearGradient id="i" gradientUnits="userSpaceOnUse" x1="1464.22" x2="1506.13" xlink:href="#g" y1="297.971" y2="297.971"/><linearGradient id="j" gradientUnits="userSpaceOnUse" x1="1496.98" x2="1520.04" xlink:href="#e" y1="313.915" y2="313.915"/><linearGradient id="k"><stop offset="0" stop-color="#fde476"/><stop offset=".9944" stop-color="#fbba23"/></linearGradient><linearGradient id="l" gradientUnits="userSpaceOnUse" x1="679.747" x2="706.159" xlink:href="#k" y1="333.109" y2="333.109"/><linearGradient id="m" gradientUnits="userSpaceOnUse" x1="318.862" x2="370.484" xlink:href="#g" y1="123.226" y2="123.226"/><linearGradient id="n" gradientUnits="userSpaceOnUse" x1="1280.11" x2="1322.02" xlink:href="#k" y1="142.861" y2="142.861"/><linearGradient id="o" gradientUnits="userSpaceOnUse" x1="1263.82" x2="1286.83" xlink:href="#g" y1="126.517" y2="126.517"/><linearGradient id="p"><stop offset=".6042" stop-color="#c8ccd0"/><stop offset="1" stop-color="#eff0f1"/></linearGradient><linearGradient id="q" gradientUnits="userSpaceOnUse" x1="1394.27" x2="1394.27" xlink:href="#p" y1="401.499" y2="448.277"/><linearGradient id="r" gradientUnits="userSpaceOnUse" x1="1394.27" x2="1394.27" xlink:href="#p" y1="407.076" y2="442.7"/><linearGradient id="s" gradientUnits="userSpaceOnUse" x1="1394.27" x2="1394.27" xlink:href="#p" y1="412.982" y2="436.795"/><linearGradient id="t" gradientUnits="userSpaceOnUse" x1="902.739" x2="902.739" xlink:href="#p" y1="419.575" y2="494.045"/><linearGradient id="u" gradientUnits="userSpaceOnUse" x1="902.739" x2="902.739" xlink:href="#p" y1="428.601" y2="485.019"/><linearGradient id="v" gradientUnits="userSpaceOnUse" x1="902.739" x2="902.739" xlink:href="#p" y1="438.159" y2="475.462"/><linearGradient id="w" gradientUnits="userSpaceOnUse" x1="1308.76" x2="1334.89" xlink:href="#e" y1="149.687" y2="149.687"/><linearGradient id="x" gradientUnits="userSpaceOnUse" x1="1515.76" x2="1541.89" xlink:href="#k" y1="262.687" y2="262.687"/><linearGradient id="y" gradientUnits="userSpaceOnUse" x1="362.763" x2="388.893" xlink:href="#k" y1="297.687" y2="297.687"/><linearGradient id="z" gradientUnits="userSpaceOnUse" x1="502.763" x2="528.893" xlink:href="#e" y1="232.687" y2="232.687"/><linearGradient id="A" gradientUnits="userSpaceOnUse" x1="838" x2="873" xlink:href="#g" y1="242.681" y2="242.681"/><linearGradient id="B" gradientUnits="userSpaceOnUse" x1="867" x2="886" xlink:href="#e" y1="256.02" y2="256.02"/><linearGradient id="C" gradientUnits="userSpaceOnUse" x1="1434.63" x2="1460.76" xlink:href="#k" y1="163.847" y2="163.847"/><linearGradient id="D" gradientUnits="userSpaceOnUse" x1="409" x2="414" xlink:href="#g" y1="204.777" y2="204.777"/><linearGradient id="E" gradientUnits="userSpaceOnUse" x1="399" x2="404" xlink:href="#g" y1="204.777" y2="204.777"/><linearGradient id="F" gradientUnits="userSpaceOnUse" x1="389" x2="394" xlink:href="#g" y1="204.777" y2="204.777"/><linearGradient id="G" gradientUnits="userSpaceOnUse" x1="618" x2="623" xlink:href="#k" y1="111.777" y2="111.777"/><linearGradient id="H" gradientUnits="userSpaceOnUse" x1="609" x2="614" xlink:href="#k" y1="111.777" y2="111.777"/><linearGradient id="I" gradientUnits="userSpaceOnUse" x1="600" x2="605" xlink:href="#k" y1="111.777" y2="111.777"/><linearGradient id="J" gradientUnits="userSpaceOnUse" x1="847" x2="852" xlink:href="#g" y1="80.7773" y2="80.7773"/><linearGradient id="K" gradientUnits="userSpaceOnUse" x1="838" x2="843" xlink:href="#g" y1="80.7773" y2="80.7773"/><linearGradient id="L" gradientUnits="userSpaceOnUse" x1="829" x2="834" xlink:href="#g" y1="80.7773" y2="80.7773"/><linearGradient id="M" gradientUnits="userSpaceOnUse" x1="204" x2="209" xlink:href="#k" y1="168.777" y2="168.777"/><linearGradient id="N" gradientUnits="userSpaceOnUse" x1="195" x2="200" xlink:href="#k" y1="168.777" y2="168.777"/><linearGradient id="O" gradientUnits="userSpaceOnUse" x1="186" x2="191" xlink:href="#k" y1="168.777" y2="168.777"/><linearGradient id="P" gradientUnits="userSpaceOnUse" x1="1363" x2="1368" xlink:href="#g" y1="61.2773" y2="61.2773"/><linearGradient id="Q" gradientUnits="userSpaceOnUse" x1="1354.5" x2="1359.5" xlink:href="#g" y1="61.2773" y2="61.2773"/><linearGradient id="R" gradientUnits="userSpaceOnUse" x1="1346" x2="1351" xlink:href="#g" y1="61.2773" y2="61.2773"/><linearGradient id="S" gradientUnits="userSpaceOnUse" x1="1077.64" x2="1145.42" xlink:href="#g" y1="75.0746" y2="75.0746"/><linearGradient id="T" gradientUnits="userSpaceOnUse" x1="1128.18" x2="1165.67" xlink:href="#k" y1="101.019" y2="101.019"/><linearGradient id="U" gradientUnits="userSpaceOnUse" x1="1041.02" x2="1092.31" xlink:href="#e" y1="80.012" y2="80.012"/><linearGradient id="V"><stop offset="0" stop-color="#35398e"/><stop offset="1" stop-color="#1d1b4c"/></linearGradient><linearGradient id="W" gradientUnits="userSpaceOnUse" x1="773.223" x2="849.512" xlink:href="#V" y1="495.376" y2="503.561"/><linearGradient id="X"><stop offset="0" stop-color="#8580a9"/><stop offset="1" stop-color="#945ca2"/></linearGradient><linearGradient id="Y" gradientUnits="userSpaceOnUse" x1="866.926" x2="906.533" xlink:href="#X" y1="355.041" y2="368.387"/><linearGradient id="Z" gradientUnits="userSpaceOnUse" x1="974.226" x2="992.276" xlink:href="#V" y1="407.261" y2="407.261"/><linearGradient id="aa" gradientUnits="userSpaceOnUse" x1="979.127" x2="979.247" xlink:href="#V" y1="408.309" y2="408.309"/><linearGradient id="ab" gradientUnits="userSpaceOnUse" x1="978.375" x2="1009.81" xlink:href="#V" y1="407.016" y2="407.016"/><linearGradient id="ac" gradientUnits="userSpaceOnUse" x1="1301.26" x2="1344.53" y1="371.777" y2="371.777"><stop offset="0" stop-color="#87ca80"/><stop offset="1" stop-color="#64b674"/></linearGradient><linearGradient id="ad" gradientUnits="userSpaceOnUse" x1="1443.4" x2="1594.55" xlink:href="#X" y1="477.384" y2="477.384"/><g opacity=".4"><path d="m1000.7 543.5c82.6-20.6 31.7-27.6 90.4-69.3s-6.5-111-20-132.7-54-10-82.2-15.9-55.9-49.6-55.9-49.6-.1-.1-.2-.2c-116 44.5-205 131.4-239.8 237.6l18.2 15.3c0 .1 100.8 61.9 289.5 14.8z" fill="url(#b)" opacity=".4"/><path d="m1256.4 311.2c-14.7 27-21.7 34.1-11.2 54 10.6 20 24.7 33.5 18.8 49.9s-29.4 9.4-24.1 27.6 24.1 21.7 24.1 21.7 92.8-4.1 136.8 2.3c44 6.5 36.4 54.6 57 48.2 15-4.7 53.4 13.1 73.1 11.6-30-106.5-114.1-195.2-226.2-243.5-16.9 4-39.5 12.2-48.3 28.2z" fill="url(#c)" opacity=".4"/><path d="m1062 248.6s44.8 50 73 50 41.4.4 59.6-7.8 12.3-14.1 14.7-18.2c1.1-2 6.8-9.2 13.1-16.4-35.8-8.2-73.5-12.6-112.3-12.6-12.9 0-25.7.5-38.3 1.4-16.6 3.4-9.8 3.6-9.8 3.6z" fill="url(#d)" opacity=".4"/></g><path d="m765.7 459.2c2.927 0 5.3-2.373 5.3-5.3s-2.373-5.3-5.3-5.3-5.3 2.373-5.3 5.3 2.373 5.3 5.3 5.3z" fill="#2b2d6e"/><path d="m795.4 424.3c1.933 0 3.5-1.567 3.5-3.5s-1.567-3.5-3.5-3.5-3.5 1.567-3.5 3.5 1.567 3.5 3.5 3.5z" fill="#2f3337" opacity=".3"/><path d="m1471.5 428.9c2.1 0 3.8-1.701 3.8-3.8s-1.7-3.8-3.8-3.8-3.8 1.701-3.8 3.8 1.7 3.8 3.8 3.8z" fill="#f2720c"/><path d="m720.5 228.3c5.5 0 10.6 1.4 11.6 3s2.1-1.7 2.1-7.2c0-7-.4-7-.4-13.9s.4-7 .4-13.9c0-5.5-4.6-9.7-10.1-9.7s-5.5-.7-11-.7-5.5.3-11 .3-9.9 4.6-9.9 10.1-.3 5.5-.3 11 .7 5.5.7 11 4.1 9.8 9.6 9.8c9 .1 9 .2 18.3.2z" fill="url(#f)"/><path d="m688.9 204.2c-5.5 0-10.5.8-11.1 1.7-.5.9-.8-2.9-.8-8.4 0-3.1-.4-3.1-.4-6.2 0-5.5 4.8-9.9 10.3-9.9 1.5 0 1.5-.1 3-.1 5.5 0 9.9 4.4 9.9 9.9 0 1.5.3 1.5.3 3 0 5.5-4.7 10-10.2 10-.4.1-.4 0-1 0z" fill="url(#h)"/><path clip-rule="evenodd" d="m698.829 187c.655 1.326 1.023 2.824 1.023 4.413 0 .75.075 1.125.15 1.5s.15.75.15 1.5c0 4.802-3.583 8.841-8.152 9.79.028-.839.065-1.514.102-2.19.075-1.375.15-2.75.15-5.5 0-4.332 2.73-8.106 6.577-9.513z" fill="#494441" fill-rule="evenodd"/><path d="m895 430.5c5.6-136.1 216-316.2 432-109.2" style="stroke:#d4d6d9;stroke-width:2;stroke-miterlimit:10;stroke-linecap:round;stroke-linejoin:round;stroke-dasharray:10 10"/><path d="m904 272.4c81-185.1 495-185.1 486 138.9" style="stroke:#d4d6d9;stroke-width:2;stroke-miterlimit:10;stroke-linecap:round;stroke-linejoin:round;stroke-dasharray:10 10"/><path d="m766.4 445.9c-87.4-322.6 326.6-403.6 418.9-201.2" style="stroke:#d4d6d9;stroke-width:2;stroke-miterlimit:10;stroke-linecap:round;stroke-linejoin:round;stroke-dasharray:10 10"/><path d="m980.3 377.9c57.7-200.6 470.7-235.6 513.7 62.4" style="stroke:#d4d6d9;stroke-width:2;stroke-miterlimit:10;stroke-linecap:round;stroke-linejoin:round;stroke-dasharray:10 10"/><path d="m1493.6 453.5c2.93 0 5.3-2.373 5.3-5.3s-2.37-5.3-5.3-5.3-5.3 2.373-5.3 5.3 2.37 5.3 5.3 5.3z" fill="#2f3337" opacity=".3"/><path d="m1187 258.3c2.21 0 4-1.791 4-4s-1.79-4-4-4-4 1.791-4 4 1.79 4 4 4z" fill="#f2720c"/><path d="m1477.5 317.6c-5.5 0-10.5 1.2-11.4 2.8-1 1.6-1.9-1.8-1.9-7.3 0-13.9.2-13.9.2-27.8 0-5.5 4.1-10.1 9.6-10.1 11 0 11 .4 22 .4 5.5 0 10.1 4.3 10.1 9.8 0 11 .1 11 .1 22 0 5.5-4.6 9.8-10.1 9.8-9.3.1-9.3.4-18.6.4z" fill="url(#i)"/><path d="m1511.5 324.6c5.5 0 6.9 1 7.4 1.8.5.9 1-3 1-8.5 0-3.4 0-3.3 0-6.9 0-5.4-4.4-9.8-9.8-9.8h-3.1c-5.6 0-10.1 4.6-10.1 10.1v3.3c0 5.5 4.7 10.1 10.2 10.1.6.1 3.9-.1 4.4-.1z" fill="url(#j)"/><path clip-rule="evenodd" d="m1506.29 301c0 1.645.01 3.609.01 6.167 0 5.115-3.98 9.193-8.96 9.738-.22-.813-.34-1.664-.34-2.538v-3.3c0-5.231 4.07-9.647 9.29-10.067z" fill="#945345" fill-rule="evenodd"/><path d="m693.8 345.2c5.5 0 10.7.7 11.3 1.7s1-2.6 1-8.1c0-4.8 0-4.8 0-9.6 0-5.5-4.6-10.2-10.1-10.2-3 0-3 .3-6 .3-5.5 0-10.3 4.3-10.3 9.8v6c0 5.5 4.8 10.1 10.3 10.1 1.9.2 1.9 0 3.8 0z" fill="url(#l)"/><path d="m363.1 132c-18.6 0-18.6.5-37.3.5-3.8 0-7-3.3-7-7.1 0-2.1.3-2.1.3-4.3 0-3.8 2.9-7.2 6.7-7.2 18.6 0 18.6.6 37.3.6 3.8 0 6.7 2.8 6.7 6.6 0 2.1.7 2.1.7 4.3 0 3.8-3.6 6.6-7.4 6.6z" fill="url(#m)"/><path d="m1308.5 162.6c5.5 0 10.5 1.1 11.5 2.7s2.1-1.8 2.1-7.3c0-13.9-.4-13.9-.4-27.8 0-5.5-4.1-10-9.6-10-11 0-11-.4-22-.4-5.5 0-9.7 4.8-9.7 10.3 0 11-.2 11-.2 22 0 5.5 4.4 9.6 9.9 9.6 9.1.4 9.1.9 18.4.9z" fill="url(#n)"/><path d="m1275.9 137.4c-5.5 0-10.6.5-11.1 1.4s-.7-2.8-.7-8.3c0-3.1-.3-3.1-.3-6.2 0-5.5 4.7-10.2 10.2-10.2 1.5 0 1.5.2 3 .2 5.5 0 9.8 4.5 9.8 10 0 1.5-.1 1.5-.1 3 0 5.5-4.3 10.1-9.8 10.1-.4 0-.4 0-1 0z" fill="url(#o)"/><path clip-rule="evenodd" d="m1285.78 121c.42 1.121.65 2.339.65 3.61 0 .75-.02 1.125-.05 1.5-.02.375-.05.75-.05 1.5 0 4.273-2.59 8.003-6.33 9.455.02-1.743.03-3.839.03-6.655 0-4.079 2.31-7.774 5.75-9.41z" fill="#99b45d" fill-rule="evenodd"/><path d="m1394 431.3c3.31 0 6-2.686 6-6s-2.69-6-6-6-6 2.686-6 6 2.69 6 6 6z" fill="#f48024"/><g opacity=".3" stroke-width="2"><path d="m1394.3 447.3c12.37 0 22.4-10.029 22.4-22.4s-10.03-22.4-22.4-22.4-22.4 10.029-22.4 22.4 10.03 22.4 22.4 22.4z" opacity=".3" stroke="url(#q)"/><path d="m1394.3 441.7c9.28 0 16.8-7.522 16.8-16.8s-7.52-16.8-16.8-16.8-16.8 7.522-16.8 16.8 7.52 16.8 16.8 16.8z" opacity=".3" stroke="url(#r)"/><path d="m1394.3 435.8c6.02 0 10.9-4.88 10.9-10.9s-4.88-10.9-10.9-10.9-10.9 4.88-10.9 10.9 4.88 10.9 10.9 10.9z" opacity=".3" stroke="url(#s)"/></g><path d="m902.5 466.3c5.247 0 9.5-4.253 9.5-9.5s-4.253-9.5-9.5-9.5-9.5 4.253-9.5 9.5 4.253 9.5 9.5 9.5z" fill="#f48024"/><g opacity=".3" stroke-width="2"><path d="m902.7 493c19.993 0 36.2-16.207 36.2-36.2s-16.207-36.2-36.2-36.2-36.2 16.207-36.2 36.2 16.207 36.2 36.2 36.2z" opacity=".3" stroke="url(#t)"/><path d="m902.7 484c15.022 0 27.2-12.178 27.2-27.2s-12.178-27.2-27.2-27.2-27.2 12.178-27.2 27.2 12.178 27.2 27.2 27.2z" opacity=".3" stroke="url(#u)"/><path d="m902.7 474.5c9.775 0 17.7-7.924 17.7-17.7 0-9.775-7.925-17.7-17.7-17.7s-17.7 7.925-17.7 17.7c0 9.776 7.925 17.7 17.7 17.7z" opacity=".3" stroke="url(#v)"/></g><path d="m1331.5 154.3c-9.5 0-9.5-.2-19-.2-1.9 0-3.7-1.4-3.7-3.3 0-1 .1-1 .1-2 0-1.9 1.7-3.7 3.6-3.7h19c1.9 0 3.3 1.7 3.3 3.7 0 1 .1 1 .1 2 0 1.9-1.5 3.5-3.4 3.5z" fill="url(#w)"/><path clip-rule="evenodd" d="m1320.73 145h-9.43c-1.9 0-3.6 1.8-3.6 3.7 0 .5-.02.75-.05 1-.02.25-.05.5-.05 1 0 1.9 1.8 3.3 3.7 3.3 4.75 0 7.13.05 9.5.1.03.001.06.001.09.002-.03-4.005-.09-6.635-.16-9.102z" fill="#f03406" fill-rule="evenodd"/><path d="m1538.5 267.3c-9.5 0-9.5-.2-19-.2-1.9 0-3.7-1.4-3.7-3.3 0-1 .1-1 .1-2 0-1.9 1.7-3.7 3.6-3.7h19c1.9 0 3.3 1.7 3.3 3.7 0 1 .1 1 .1 2 0 1.9-1.5 3.5-3.4 3.5z" fill="url(#x)"/><path d="m385.5 302.3c-9.5 0-9.5-.2-19-.2-1.9 0-3.7-1.4-3.7-3.3 0-1 .1-1 .1-2 0-1.9 1.7-3.7 3.6-3.7h19c1.9 0 3.3 1.7 3.3 3.7 0 1 .1 1 .1 2 0 1.9-1.5 3.5-3.4 3.5z" fill="url(#y)"/><path d="m525.5 237.3c-9.5 0-9.5-.2-19-.2-1.9 0-3.7-1.4-3.7-3.3 0-1 .1-1 .1-2 0-1.9 1.7-3.7 3.6-3.7h19c1.9 0 3.3 1.7 3.3 3.7 0 1 .1 1 .1 2 0 1.9-1.5 3.5-3.4 3.5z" fill="url(#z)"/><path d="m851 259.3c-5.5 0-10.7 1.1-11.5 2.5s-1.5-2-1.5-7.5v-21c0-5.5 4.5-10 10-10h15c5.5 0 10 4.5 10 10v16c0 5.5-4.5 10-10 10z" fill="url(#A)"/><path d="m875.7 265.3c4.8 0 9.1.6 9.5 1.4s.8-3.1.8-8.6v-2.8c0-5.5-4.3-10-9.5-10s-9.5 4.5-9.5 10 3.9 10 8.7 10z" fill="url(#B)"/><path clip-rule="evenodd" d="m873 246v3.288c0 3.926-2.293 7.343-5.605 8.977-.257-.942-.395-1.941-.395-2.977 0-4.196 2.503-7.811 6-9.288z" fill="#945345" fill-rule="evenodd"/><path d="m1457.4 168.6c-9.5 0-9.5-.2-19-.2-1.9 0-3.7-1.4-3.7-3.3 0-1.1.1-1.1.1-2.2 0-1.9 1.7-3.7 3.6-3.7h19c1.9 0 3.3 1.7 3.3 3.7 0 1.1.1 1.1.1 2.2 0 1.9-1.5 3.5-3.4 3.5z" fill="url(#C)"/><g fill="#fff"><path d="m721.5 210.3c1.381 0 2.5-1.119 2.5-2.5s-1.119-2.5-2.5-2.5-2.5 1.119-2.5 2.5 1.119 2.5 2.5 2.5z"/><path d="m713.5 210.3c1.381 0 2.5-1.119 2.5-2.5s-1.119-2.5-2.5-2.5-2.5 1.119-2.5 2.5 1.119 2.5 2.5 2.5z"/><path d="m705.5 210.3c1.381 0 2.5-1.119 2.5-2.5s-1.119-2.5-2.5-2.5-2.5 1.119-2.5 2.5 1.119 2.5 2.5 2.5z"/><path d="m1309.5 142.6c1.38 0 2.5-1.119 2.5-2.5s-1.12-2.5-2.5-2.5-2.5 1.119-2.5 2.5 1.12 2.5 2.5 2.5z"/><path d="m1301 142.6c1.38 0 2.5-1.119 2.5-2.5s-1.12-2.5-2.5-2.5-2.5 1.119-2.5 2.5 1.12 2.5 2.5 2.5z"/><path d="m1292.5 142.6c1.38 0 2.5-1.119 2.5-2.5s-1.12-2.5-2.5-2.5-2.5 1.119-2.5 2.5 1.12 2.5 2.5 2.5z"/><path d="m1493.5 296.6c1.38 0 2.5-1.119 2.5-2.5s-1.12-2.5-2.5-2.5-2.5 1.119-2.5 2.5 1.12 2.5 2.5 2.5z"/><path d="m1485 296.6c1.38 0 2.5-1.119 2.5-2.5s-1.12-2.5-2.5-2.5-2.5 1.119-2.5 2.5 1.12 2.5 2.5 2.5z"/><path d="m1476.5 296.6c1.38 0 2.5-1.119 2.5-2.5s-1.12-2.5-2.5-2.5-2.5 1.119-2.5 2.5 1.12 2.5 2.5 2.5z"/><path d="m864.5 243.3c1.381 0 2.5-1.119 2.5-2.5s-1.119-2.5-2.5-2.5-2.5 1.119-2.5 2.5 1.119 2.5 2.5 2.5z"/><path d="m855.5 243.3c1.381 0 2.5-1.119 2.5-2.5s-1.119-2.5-2.5-2.5-2.5 1.119-2.5 2.5 1.119 2.5 2.5 2.5z"/><path d="m846.5 243.3c1.381 0 2.5-1.119 2.5-2.5s-1.119-2.5-2.5-2.5-2.5 1.119-2.5 2.5 1.119 2.5 2.5 2.5z"/></g><path d="m411.5 207.3c1.381 0 2.5-1.119 2.5-2.5s-1.119-2.5-2.5-2.5-2.5 1.119-2.5 2.5 1.119 2.5 2.5 2.5z" fill="url(#D)"/><path d="m401.5 207.3c1.381 0 2.5-1.119 2.5-2.5s-1.119-2.5-2.5-2.5-2.5 1.119-2.5 2.5 1.119 2.5 2.5 2.5z" fill="url(#E)"/><path d="m391.5 207.3c1.381 0 2.5-1.119 2.5-2.5s-1.119-2.5-2.5-2.5-2.5 1.119-2.5 2.5 1.119 2.5 2.5 2.5z" fill="url(#F)"/><path d="m620.5 114.3c1.381 0 2.5-1.119 2.5-2.5s-1.119-2.5-2.5-2.5-2.5 1.119-2.5 2.5 1.119 2.5 2.5 2.5z" fill="url(#G)"/><path d="m611.5 114.3c1.381 0 2.5-1.119 2.5-2.5s-1.119-2.5-2.5-2.5-2.5 1.119-2.5 2.5 1.119 2.5 2.5 2.5z" fill="url(#H)"/><path d="m602.5 114.3c1.381 0 2.5-1.119 2.5-2.5s-1.119-2.5-2.5-2.5-2.5 1.119-2.5 2.5 1.119 2.5 2.5 2.5z" fill="url(#I)"/><path d="m849.5 83.3c1.381 0 2.5-1.1192 2.5-2.5 0-1.3807-1.119-2.5-2.5-2.5s-2.5 1.1193-2.5 2.5c0 1.3808 1.119 2.5 2.5 2.5z" fill="url(#J)"/><path d="m840.5 83.3c1.381 0 2.5-1.1192 2.5-2.5 0-1.3807-1.119-2.5-2.5-2.5s-2.5 1.1193-2.5 2.5c0 1.3808 1.119 2.5 2.5 2.5z" fill="url(#K)"/><path d="m831.5 83.3c1.381 0 2.5-1.1192 2.5-2.5 0-1.3807-1.119-2.5-2.5-2.5s-2.5 1.1193-2.5 2.5c0 1.3808 1.119 2.5 2.5 2.5z" fill="url(#L)"/><path d="m206.5 171.3c1.381 0 2.5-1.119 2.5-2.5s-1.119-2.5-2.5-2.5-2.5 1.119-2.5 2.5 1.119 2.5 2.5 2.5z" fill="url(#M)"/><path d="m197.5 171.3c1.381 0 2.5-1.119 2.5-2.5s-1.119-2.5-2.5-2.5-2.5 1.119-2.5 2.5 1.119 2.5 2.5 2.5z" fill="url(#N)"/><path d="m188.5 171.3c1.381 0 2.5-1.119 2.5-2.5s-1.119-2.5-2.5-2.5-2.5 1.119-2.5 2.5 1.119 2.5 2.5 2.5z" fill="url(#O)"/><path d="m1365.5 63.8c1.38 0 2.5-1.1192 2.5-2.5 0-1.3807-1.12-2.5-2.5-2.5s-2.5 1.1193-2.5 2.5c0 1.3808 1.12 2.5 2.5 2.5z" fill="url(#P)"/><path d="m1357 63.8c1.38 0 2.5-1.1192 2.5-2.5 0-1.3807-1.12-2.5-2.5-2.5s-2.5 1.1193-2.5 2.5c0 1.3808 1.12 2.5 2.5 2.5z" fill="url(#Q)"/><path d="m1348.5 63.8c1.38 0 2.5-1.1192 2.5-2.5 0-1.3807-1.12-2.5-2.5-2.5s-2.5 1.1193-2.5 2.5c0 1.3808 1.12 2.5 2.5 2.5z" fill="url(#R)"/><path d="m1093.4 105.8c-5.5 0-10.8 2.8-12.3 5.4-1.6 2.6-3.5-.1-3.5-5.6 0-14.2999.8-14.2999.8-28.5999s-.5-14.3-.5-28.6c0-5.5 4.4-10.3 9.9-10.3 23.4 0 23.4.6 46.9.6 5.5 0 10.3 4.2 10.3 9.7 0 23.9.5 23.9.5 47.8 0 5.4999-5.2 9.5999-10.7 9.5999-20.7-.3-20.7 0-41.4 0z" fill="url(#S)"/><path d="m1152.2 118.6c5.5 0 10.7.8 11.6 2.3s1.9-1.9 1.9-7.4c0-11.3 0-11.3 0-22.5999 0-5.5-4.8-9.9001-10.3-9.9001-8.4 0-8.4-.2-16.9-.2-5.5 0-10.3 4.6001-10.3 10.1001v17.3999c0 5.5 4.8 10.3 10.3 10.3 6.9.1 6.9 0 13.7 0z" fill="url(#T)"/><path d="m1085.1 89.2001c-18.6 0-18.6-.3-37.3-.3-3.8 0-6.5-2.7-6.5-6.5 0-2.1-.4-2.1001-.4-4.3001 0-3.8 3-7.3 6.8-7.3 18.6 0 18.6.4001 37.3.4001 3.8 0 6.5 3.0999 6.5 6.8999 0 2.1.7 2.1001.7 4.3001.1 3.8-3.3 6.8-7.1 6.8z" fill="url(#U)"/><path clip-rule="evenodd" d="m1078.47 71c1.93.0127 4.11.0198 6.63.0198 3.8 0 6.5 3.1001 6.5 6.9001 0 1.0376.17 1.5625.34 2.0935.18.5437.36 1.0935.36 2.2066.1 3.7998-3.3 6.7998-7.1 6.7998-2.68 0-4.97-.0061-6.98-.0169.15-2.9875.28-6.4267.28-12.1831 0-2.2593-.01-4.1616-.03-5.8198z" fill="#945345" fill-rule="evenodd"/><path clip-rule="evenodd" d="m1145.21 81.0642c.05 3.9609.09 8.7376.09 15.3359 0 5.4999-5.2 9.5999-10.7 9.5999-2.47-.036-4.65-.063-6.6-.083v-14.8169c0-5.5 4.8-10.1001 10.3-10.1001 3.21 0 5.21.0286 6.91.0642z" fill="#99b45d" fill-rule="evenodd"/><path d="m849.1 463.7c0 13.8-4.7 26.6-13.7 35.6s-21.8 14-35.6 14-25.8-5.7-34.9-14.8-15.4-21.1-15.4-34.9 6.3-25.9 15.4-34.9 21.1-14.9 34.9-14.9 25.6 6.1 34.7 15.1c9 9.1 14.6 21 14.6 34.8z" fill="#fff"/><path d="m836.8 495.1c-2.6-3.1-6.3-6.7-10.3-7.2-7.3-1-21.8 0-21.8 0l-19.5 2.7-15.9 9.7c8.5 6.9 19.3 11 31 11 14.5-.1 27.5-6.3 36.5-16.2z" fill="url(#W)"/><path d="m824.7 453.2h-6.2v1h6.2z" fill="#323756"/><path d="m805.8 467.5-19.6-1.1-1.2 21.3c-.3 5.4 3.8 10.1 9.2 10.4s10.1-3.8 10.4-9.2z" fill="#ffcac0"/><path d="m794.3 471.9-10.8.9c-1.9.2-3.6-1.3-3.7-3.2l-.9-11.5 14.2-1.1z" fill="#5c3a34"/><path d="m819.2 451.1-12.6 1-1.5-18.2 12.3-1c1.7-.1 3.2 1.1 3.4 2.9l1 12.3c.1 1.5-1 2.8-2.6 3z" fill="#5c3a34"/><path d="m812.4 478.2-25.4.4-.4-28.6c-.1-8.7 6.8-15.8 15.5-16 8.4-.1 17.2 6.5 17.8 14.8l-1.4 21.6c.2 4.2-2.1 7.8-6.1 7.8z" fill="#ffcac0"/><path d="m817.3 465.4c.2 2.4-1.5 4.5-3.9 4.7s-4.5-1.5-4.7-3.9z" fill="#fff"/><path d="m812.9 452.1c0-.8-.7-1.5-1.5-1.5h-6.4c-.8 0-1.5.7-1.5 1.5v1h-8.6l.1 1h8.5v.5c0 .8.7 1.5 1.5 1.5h6.4c.8 0 1.5-.7 1.5-1.5v-.6h2.9v-1h-2.9zm-1 2.5c0 .3-.2.5-.5.5h-6.4c-.3 0-.5-.2-.5-.5v-2.5c0-.3.2-.5.5-.5h6.4c.3 0 .5.2.5.5z" fill="#323756"/><path d="m823.7 450.9h-6.4c-.8 0-1.5.7-1.5 1.5v2.5c0 .8.7 1.5 1.5 1.5h6.4c.8 0 1.5-.7 1.5-1.5v-2.5c0-.8-.7-1.5-1.5-1.5zm.5 4c0 .3-.2.5-.5.5h-6.4c-.3 0-.5-.2-.5-.5v-2.5c0-.3.2-.5.5-.5h6.4c.3 0 .5.2.5.5z" fill="#323756"/><path d="m809.5 435.1c-.3-3.1-3.9-5.4-8.1-5.1l-10.9.9c-4.2.3-7.5 3.2-7.2 6.3v.3l-2.1.2c-2.2.2-3.8 2.1-3.6 4.3l1.5 18.2 16.4-1.3-.4-4.8-.1-1-.9-11 8.2-.7c4.2-.3 7.5-3.1 7.2-6.3z" fill="#5c3a34"/><path d="m787.1 462.3 4.3-.3-.3-4.3c-.2-2.4-2.3-4.1-4.6-3.9-2.4.2-4.1 2.3-3.9 4.6 0 2.3 2.1 4.1 4.5 3.9z" fill="#ffcac0"/><path d="m913.2 342.8c0 5.6-2 10.6-4.6 15.1-2.7 4.6-6.2 8.7-10.8 11.4-4.5 2.6-9.7 3.7-15.3 3.7s-11-.8-15.5-3.3c-4.6-2.7-8.5-6.8-11.2-11.4-2.6-4.5-4.3-9.8-4.3-15.4s2.5-10.5 5.1-15c2.7-4.6 6-9 10.6-11.6 4.5-2.6 9.8-4.2 15.4-4.2s10.5 2.3 15 4.9c4.6 2.7 8.3 6.3 11 10.9 2.5 4.4 4.6 9.3 4.6 14.9z" fill="#fff"/><path d="m903.5 359.9-5.2-4.6h-12.3l-10.4-.2-10.1 7.7c4.7 4 10.8 6.5 17.6 6.5 8.1 0 15.4-3.7 20.4-9.4z" fill="url(#Y)"/><path d="m887 344.6-10.7-.6-.7 11.6c-.2 3 2.1 5.5 5 5.7 3 .2 5.5-2.1 5.7-5z" fill="#c69c6d"/><path d="m880.7 347-5.9.5c-1 .1-1.9-.7-2-1.7l-.5-6.3 7.8-.6z" fill="#000"/><path d="m897.5 330.4c-.1-1.7-1.1-3.1-2.4-4l-.2-2.7c-.1-.9-.9-1.6-1.8-1.6l-6.7.5 1.1 13.5 3.7-.3v.3l1.6-.1c.6 0 1.1-.2 1.6-.4.5 0 .9-.3 1.1-.6 1.3-1 2.1-2.7 2-4.6z" fill="#000"/><path d="m895.3 348.9-1-7.6-1-7.3c-.6-4.5-4.6-7.8-9.2-7.4-4.7.4-8.2 4.5-7.9 9.2l1.2 15.5 3.7-.3c1.3 1.3 3.1 2.1 5 1.9l6.2-.5c1.9-.1 3.2-1.7 3-3.5z" fill="#c69c6d"/><path d="m893.8 325.3h-.2c-.1-1.7-1.6-3-3.4-2.9l-4.4.4c-.8.1-1.6.5-2.1 1-.6-.7-1.5-1.1-2.5-1-1.5.1-2.6 1.2-2.8 2.6l-5.1.4c-1.2.1-2.1 1.1-2 2.3l1 12.5 8.9-.7-.8-9.5c1.3 1.2 3.1 1.9 5 1.7l8.8-.7z" fill="#000"/><path d="m892.9 346.2c.1 1.1-.7 2.1-1.8 2.2s-2.1-.7-2.2-1.8z" fill="#fff"/><path d="m876.8 341.8 2.3-.2-.2-2.3c-.1-1.3-1.2-2.2-2.5-2.1s-2.2 1.2-2.1 2.5c0 1.2 1.2 2.2 2.5 2.1z" fill="#c69c6d"/><path d="m1029.8 415.3c0 6.4-1.8 12.2-4.8 17.4-3.1 5.3-7.2 10-12.5 13.1-5.1 3-11.2 4.9-17.6 4.9s-12.2-2.4-17.3-5.4c-5.3-3.1-9.9-7.2-12.9-12.5-3-5.1-4-11.1-4-17.5s1.3-12.2 4.3-17.3c3.1-5.3 7-10.3 12.3-13.3 5.1-3 11.3-4.7 17.7-4.7s12 2.6 17.2 5.5c5.3 3.1 10.3 6.8 13.4 12.1 3 5.2 4.2 11.3 4.2 17.7z" fill="#fff"/><path d="m994.5 440.2c8-.7 15-4.5 19.7-10.2-1.5-1.1-3.4-1.7-5.4-1.2h-.1l-23.3.4c-3.8.1-6.8 3.3-6.5 7.1l.1 1c4.6 2.2 9.9 3.3 15.5 2.9z" fill="#f56344"/><path d="m989.1 389.5h2.5l.6 35.5-7.3.1c-6.3.1-11.3-4.9-10.8-10.9l1.1-12.6c.8-6.8 6.7-12 13.9-12.1z" fill="url(#Z)"/><path d="m1000.2 408h-2.4v-2.4c0-1.3 1-2.4 2.4-2.5 1.3 0 2.4 1 2.5 2.4-.1 1.4-1.2 2.5-2.5 2.5z" fill="#ffcac0"/><path d="m1004.1 425.3c-.5-3.5-2.3-6.9-3.5-9l-.3-19.4-20.8.4.8 16c-.2 4.8 3.6 8.7 8.4 8.6h.9l1.8 7.2s3.1 10.7 11.8 2.6c1-1 1.3-4 .9-6.4z" fill="#ffc7bd"/><path d="m989.2 415.2c.1 1.7-1.2 3.1-2.8 3.2-1.7.1-3.1-1.2-3.2-2.8z" fill="#fff"/><path d="m979.2 411.7-.1-6.8z" fill="url(#aa)"/><path d="m1009.7 416.2-2.3-15.5c-1-6.5-7-11.3-14.1-11.2h-1.7v2.5l-4 .1c-2.9.1-7.3 1.9-8.9 4-1.1 1.5.2 2.9.2 4.9l.1 3.8c3.7-.1 7.2-1.8 9.5-4.7l3.1-4v2.4c0 2.5.8 4.9 2.2 6.9l3.3 4.7c3 4.3 3 9.8.1 14.1l4.8-.1c4.8.2 8.4-3.6 7.7-7.9z" fill="url(#ab)"/><path d="m1361.6 348.3c0 6.4-1.6 12.3-4.6 17.4-3.1 5.3-7.5 9.6-12.8 12.7-5.1 3-11 4.4-17.4 4.4s-12.6-.7-17.8-3.6c-5.3-3.1-9.5-7.9-12.6-13.3-3-5.1-5.2-11.2-5.2-17.5 0-6.4 1.9-12.6 4.9-17.7 3.1-5.3 8-9.3 13.3-12.4 5.1-3 11-4.7 17.4-4.7s12.7.9 17.8 3.9c5.3 3.1 8.8 8.4 11.9 13.7 3.1 5 5.1 10.7 5.1 17.1z" fill="#fff"/><path d="m1330.6 337.3-.4-1.3-2-.1c-2.5-.1-4.6-1.3-6.1-3l-.5 10.8 7.7.3-.2 4.5 10.7.5v5.9c0-.2.1-.5.1-.7l-.1-12.5c-.8.3-1.7.4-2.6.4-2.9-.2-5.6-2.2-6.6-4.8z" fill="#a67c52"/><path d="m1343.7 367.7-17.3-3.4-.4 3.2-17-2.2.4-1c-.9.1-4.3.3-8.2 1.1 6.5 8.8 16.6 14.7 27.4 13.8 6.1-.5 11.1-4.8 15.9-11-.5-.3-.8-.5-.8-.5z" fill="url(#ac)"/><path d="m1328.2 335.9 2 .1.4 1.3c1 2.6 3.7 4.6 6.6 4.8.9 0 1.8-.1 2.6-.4 2.5-.9 4.3-3.3 4.4-6.1.1-2.2-.9-4.2-2.5-5.5-.1-2.6-1.9-4.9-4.3-5.6-.4-.1-.7-.2-1.1-.2h-.3l-5.4-.2h-.5c-1.1 0-2.1.3-2.8 1-.7-1-1.8-1.6-3.1-1.7-1.9-.1-3.5 1.2-4 2.9h-.2c-5.1-.2-9.4 3.7-9.7 8.9l-.3 8.1-.3 5.9c-.1 2.5 1.8 4.6 4.3 4.8h.1l2.3.1 6.6.3-.2 4.4-.2 3.6 3.8.2 9.1.4c2.3.1 4.2-1.7 4.2-4v-4-5.9l-10.7-.5.2-4.5-7.7-.3.5-10.8c1.6 1.6 3.7 2.8 6.2 2.9z" fill="#4d4d4d"/><path d="m1339.3 351.5c.1 1.6-1 3-2.6 3.1s-3-1-3.1-2.6z" fill="#fff"/><path d="m1322.8 362.3.2-3.6.2-4.4-6.6-.3-2.3-.1h-.1l-4.7 10.4-.4 1 17 2.2.4-3.2.2-1.8z" fill="#a67c52"/><path d="m1524.5 446.8c0 12.4-5.1 23.4-13.2 31.6s-19.1 13.7-31.6 13.7-24-4.9-32.2-13.1c-8.1-8.1-12.3-19.8-12.3-32.2s4.6-23.6 12.8-31.8c8.1-8.1 19.3-12.3 31.8-12.3s23.4 4.5 31.5 12.6c8 8.2 13.2 19.1 13.2 31.5z" fill="#fff"/><path d="m1465.1 466.6 8.8.6 3.3-49.1-3.1-.2c-8.9-.6-16.9 6.7-18.5 17l-3 19.2c-1 6.3 1.5 12.3 5.8 15.4 1.6-2 4.1-3.1 6.7-2.9z" fill="#151639"/><path d="m1473.6 472.3.3-5.1-8.8-.6c-2.7-.2-5.1.9-6.8 2.8 1.8 1.3 3.9 2.2 6.2 2.3z" fill="#151639"/><path d="m1503.5 475.7h-.1c-.5-4.5-4.7-7.8-9.2-7.2-.1 0-.1 0-.2 0l-20.1-1.4-8.8-.6c-2.7-.2-5.1.9-6.8 2.8-1.2 1.4-2 3.2-2 5.3l-.1 3.9-.3 2c5.6 4.7 12.3 7.7 19.4 7.7 10.2 0 20.5-4.2 28.2-11z" fill="url(#ad)"/><path d="m1485.5 451.2 1.6-23.1-25.7-1.7-.6 19.9c-.8 5.9 3.6 11.2 9.5 11.6l1.1.1 1.5 9.1s1.9 9.2 13.4 0c6.3-5.2 1.8-12.6-.8-15.9z" fill="#b77368"/><path d="m1471.4 449.7c-.1 2.1-1.8 3.7-3.8 3.6-2.1-.1-3.7-1.8-3.6-3.8z" fill="#fff"/><path d="m1495.3 438.4c-.3-10.9-7.2-19.5-16-20.1l-2.2-.1-.2 3.1-5-.3c-3.5-.2-9.3 1.6-11.4 4.1-1.5 1.7 0 3.6-.2 6.1l-.3 4.7c4.6.3 9.1-1.5 12.3-4.8l4.3-4.6-.5 6.7c-.3 4.1.4 8.1 1.9 11.7l3.4 8.2c3.1 7.4 2.4 16.5-1.8 23.3l6 .4c5.7.4 10.6-5.5 10.4-12.6z" fill="#151639"/><path d="m1125.8 69.2c2.26 0 4.1-1.8356 4.1-4.1s-1.84-4.1-4.1-4.1-4.1 1.8356-4.1 4.1 1.84 4.1 4.1 4.1z" fill="#fff"/><path d="m1112 69.2c2.26 0 4.1-1.8356 4.1-4.1s-1.84-4.1-4.1-4.1-4.1 1.8356-4.1 4.1 1.84 4.1 4.1 4.1z" fill="#fff"/><path d="m1098.1 69.2c2.26 0 4.1-1.8356 4.1-4.1s-1.84-4.1-4.1-4.1-4.1 1.8356-4.1 4.1 1.84 4.1 4.1 4.1z" fill="#fff"/></svg>