<?xml version="1.0" standalone="no"?>
<svg xmlns:xlink="http://www.w3.org/1999/xlink" id="wave" style="transform:rotate(0deg); transition: 0.3s" viewBox="0 0 1440 450" version="1.1" xmlns="http://www.w3.org/2000/svg"><defs><linearGradient id="sw-gradient-0" x1="0" x2="0" y1="1" y2="0"><stop stop-color="rgba(27.748, 26.437, 26.015, 1)" offset="0%"/><stop stop-color="rgba(23.195, 22.744, 21.746, 1)" offset="100%"/></linearGradient></defs><path style="transform:translate(0, 0px); opacity:1" fill="url(#sw-gradient-0)" d="M0,135L480,225L960,315L1440,135L1920,135L2400,90L2880,225L3360,360L3840,360L4320,315L4800,405L5280,45L5760,315L6240,405L6720,135L7200,135L7680,315L8160,225L8640,180L9120,0L9600,45L10080,405L10560,180L11040,360L11520,225L11520,450L11040,450L10560,450L10080,450L9600,450L9120,450L8640,450L8160,450L7680,450L7200,450L6720,450L6240,450L5760,450L5280,450L4800,450L4320,450L3840,450L3360,450L2880,450L2400,450L1920,450L1440,450L960,450L480,450L0,450Z"/></svg>