<svg xmlns="http://www.w3.org/2000/svg" xmlns:xlink="http://www.w3.org/1999/xlink" aria-hidden="true" focusable="false" width="1em" height="1em" style="-ms-transform: rotate(360deg); -webkit-transform: rotate(360deg); transform: rotate(360deg);" preserveAspectRatio="xMidYMid meet" viewBox="0 0 24 24"><g fill="#fff"><path d="M11 10.98a1 1 0 1 1 2 0v6a1 1 0 1 1-2 0v-6z" fill="#fff"/><path d="M12 6.051a1 1 0 1 0 0 2a1 1 0 0 0 0-2z" fill="#fff"/><path fill-rule="evenodd" clip-rule="evenodd" d="M12 2C6.477 2 2 6.477 2 12s4.477 10 10 10s10-4.477 10-10S17.523 2 12 2zM4 12a8 8 0 1 0 16 0a8 8 0 0 0-16 0z" fill="#fff"/></g></svg>
